<svg width="37" height="37" viewBox="0 0 37 37" fill="none" xmlns="http://www.w3.org/2000/svg">
<path d="M24.0092 16.5065H15.5159L17.3916 14.5407C17.6662 14.2522 17.815 13.8664 17.8051 13.4682C17.7953 13.07 17.6276 12.692 17.3391 12.4174C17.0506 12.1428 16.6648 11.9941 16.2666 12.0039C15.8684 12.0138 15.4904 12.1814 15.2158 12.4699L10.9241 16.9717C10.874 17.0331 10.8288 17.0983 10.789 17.1668C10.7197 17.2528 10.6641 17.349 10.624 17.4519C10.5712 17.5861 10.5408 17.728 10.5339 17.8721L10.5039 18.0071C10.5063 18.2032 10.5471 18.3969 10.624 18.5773C10.6971 18.7562 10.8041 18.9192 10.9391 19.0575L15.4409 23.5593C15.5804 23.7 15.7463 23.8116 15.9292 23.8878C16.112 23.964 16.3082 24.0032 16.5063 24.0032C16.7044 24.0032 16.9005 23.964 17.0834 23.8878C17.2662 23.8116 17.4322 23.7 17.5717 23.5593C17.7123 23.4198 17.824 23.2538 17.9002 23.071C17.9763 22.8881 18.0156 22.692 18.0156 22.4939C18.0156 22.2958 17.9763 22.0997 17.9002 21.9168C17.824 21.7339 17.7123 21.568 17.5717 21.4285L15.6209 19.5077H24.0092C24.4072 19.5077 24.7889 19.3496 25.0703 19.0682C25.3517 18.7868 25.5098 18.4051 25.5098 18.0071C25.5098 17.6091 25.3517 17.2274 25.0703 16.946C24.7889 16.6646 24.4072 16.5065 24.0092 16.5065Z" fill="white"/>
<path d="M18.0074 3.00116C15.0395 3.00116 12.1383 3.88124 9.67055 5.53011C7.20284 7.17899 5.27949 9.52259 4.14373 12.2646C3.00797 15.0065 2.7108 18.0237 3.28981 20.9346C3.86881 23.8455 5.29799 26.5193 7.39661 28.6179C9.49522 30.7165 12.169 32.1457 15.0799 32.7247C17.9908 33.3037 21.0079 33.0065 23.7499 31.8708C26.4919 30.735 28.8355 28.8116 30.4844 26.3439C32.1332 23.8762 33.0133 20.975 33.0133 18.0071C33.0133 16.0365 32.6252 14.0852 31.8711 12.2646C31.117 10.444 30.0116 8.78972 28.6182 7.39629C27.2248 6.00286 25.5705 4.89754 23.7499 4.14342C21.9293 3.3893 19.978 3.00116 18.0074 3.00116ZM18.0074 30.0118C15.6331 30.0118 13.3121 29.3078 11.3379 27.9887C9.36375 26.6696 7.82507 24.7947 6.91646 22.6011C6.00785 20.4075 5.77012 17.9938 6.23333 15.6651C6.69653 13.3364 7.83987 11.1973 9.51876 9.51845C11.1977 7.83956 13.3367 6.69622 15.6654 6.23301C17.9941 5.76981 20.4078 6.00754 22.6014 6.91615C24.795 7.82476 26.6699 9.36344 27.989 11.3376C29.3081 13.3118 30.0121 15.6328 30.0121 18.0071C30.0121 21.1909 28.7474 24.2444 26.496 26.4957C24.2447 28.747 21.1913 30.0118 18.0074 30.0118Z" fill="white"/>
</svg>
