<svg width="37" height="37" viewBox="0 0 37 37" fill="none" xmlns="http://www.w3.org/2000/svg">
<path d="M25.5245 18.0071C25.5245 18.0071 25.5245 17.9171 25.5245 17.8721C25.5176 17.728 25.4872 17.5861 25.4344 17.4519C25.3943 17.349 25.3387 17.2528 25.2694 17.1668C25.2296 17.0983 25.1844 17.0331 25.1343 16.9717L20.8426 12.4699C20.7067 12.3271 20.5439 12.2124 20.3636 12.1324C20.1833 12.0524 19.989 12.0088 19.7918 12.0039C19.3936 11.9941 19.0078 12.1428 18.7193 12.4174C18.4308 12.692 18.2631 13.07 18.2533 13.4682C18.2434 13.8664 18.3922 14.2522 18.6668 14.5407L20.5125 16.5065H12.0191C11.6212 16.5065 11.2395 16.6646 10.9581 16.946C10.6767 17.2275 10.5186 17.6091 10.5186 18.0071C10.5186 18.4051 10.6767 18.7868 10.9581 19.0682C11.2395 19.3496 11.6212 19.5077 12.0191 19.5077H20.4075L18.4567 21.4435C18.316 21.583 18.2044 21.7489 18.1282 21.9318C18.052 22.1147 18.0128 22.3108 18.0128 22.5089C18.0128 22.707 18.052 22.9031 18.1282 23.086C18.2044 23.2688 18.316 23.4348 18.4567 23.5743C18.5962 23.715 18.7622 23.8266 18.945 23.9028C19.1279 23.979 19.324 24.0182 19.5221 24.0182C19.7202 24.0182 19.9163 23.979 20.0992 23.9028C20.2821 23.8266 20.448 23.715 20.5875 23.5743L25.0893 19.0725C25.2243 18.9343 25.3313 18.7712 25.4044 18.5923C25.4833 18.4073 25.5241 18.2083 25.5245 18.0071Z" fill="white"/>
<path d="M18.0216 3.00116C15.0537 3.00116 12.1524 3.88124 9.68471 5.53011C7.217 7.17899 5.29365 9.52259 4.15789 12.2646C3.02213 15.0065 2.72496 18.0237 3.30397 20.9346C3.88297 23.8455 5.31215 26.5193 7.41077 28.6179C9.50938 30.7165 12.1832 32.1457 15.094 32.7247C18.0049 33.3037 21.0221 33.0065 23.7641 31.8708C26.5061 30.735 28.8497 28.8116 30.4985 26.3439C32.1474 23.8762 33.0275 20.975 33.0275 18.0071C33.0275 16.0365 32.6393 14.0852 31.8852 12.2646C31.1311 10.444 30.0258 8.78972 28.6324 7.39629C27.2389 6.00286 25.5847 4.89754 23.7641 4.14342C21.9435 3.3893 19.9922 3.00116 18.0216 3.00116ZM18.0216 30.0118C15.6472 30.0118 13.3263 29.3078 11.3521 27.9887C9.37791 26.6696 7.83923 24.7947 6.93062 22.6011C6.02201 20.4075 5.78428 17.9938 6.24749 15.6651C6.71069 13.3364 7.85403 11.1973 9.53293 9.51845C11.2118 7.83956 13.3509 6.69622 15.6796 6.23301C18.0082 5.76981 20.422 6.00754 22.6156 6.91615C24.8092 7.82476 26.684 9.36344 28.0031 11.3376C29.3222 13.3118 30.0263 15.6328 30.0263 18.0071C30.0263 21.1909 28.7615 24.2444 26.5102 26.4957C24.2589 28.747 21.2054 30.0118 18.0216 30.0118Z" fill="white"/>
</svg>
